<svg width="91" height="75" viewBox="0 0 91 75" fill="none" xmlns="http://www.w3.org/2000/svg">
<rect width="80" height="64" rx="12" fill="#F34B7D" fill-opacity="0.2"/>
<rect x="11" y="11" width="58" height="42" rx="8" fill="#EC5280" fill-opacity="0.8"/>
<path d="M31.5572 30.0909H26.7504C26.7163 29.6932 26.6254 29.3324 26.4776 29.0085C26.3356 28.6847 26.1367 28.4062 25.881 28.1733C25.631 27.9347 25.3271 27.7528 24.9691 27.6278C24.6112 27.4972 24.2049 27.4318 23.7504 27.4318C22.9549 27.4318 22.2816 27.625 21.7305 28.0114C21.185 28.3977 20.7702 28.9517 20.4862 29.6733C20.2077 30.3949 20.0685 31.2614 20.0685 32.2727C20.0685 33.3409 20.2106 34.2358 20.4947 34.9574C20.7844 35.6733 21.2021 36.2131 21.7475 36.5767C22.293 36.9347 22.9492 37.1136 23.7163 37.1136C24.1538 37.1136 24.5458 37.0597 24.8924 36.9517C25.239 36.8381 25.5401 36.6761 25.7958 36.4659C26.0515 36.2557 26.2589 36.0028 26.418 35.7074C26.5827 35.4062 26.6935 35.0682 26.7504 34.6932L31.5572 34.7273C31.5004 35.4659 31.293 36.2187 30.935 36.9858C30.5771 37.7472 30.0685 38.4517 29.4094 39.0994C28.756 39.7415 27.9464 40.2585 26.9805 40.6506C26.0146 41.0426 24.8924 41.2386 23.614 41.2386C22.0117 41.2386 20.5742 40.8949 19.3015 40.2074C18.0344 39.5199 17.0316 38.5085 16.293 37.1733C15.56 35.8381 15.1935 34.2045 15.1935 32.2727C15.1935 30.3295 15.5685 28.6932 16.3185 27.3636C17.0685 26.0284 18.0799 25.0199 19.3526 24.3381C20.6254 23.6506 22.0458 23.3068 23.614 23.3068C24.7163 23.3068 25.7305 23.4574 26.6566 23.7585C27.5827 24.0597 28.3952 24.5 29.0941 25.0795C29.793 25.6534 30.3555 26.3608 30.7816 27.2017C31.2077 28.0426 31.4663 29.0057 31.5572 30.0909ZM38.9911 38.6136V26H42.8093V38.6136H38.9911ZM34.5934 34.2159V30.3977H47.207V34.2159H34.5934ZM55.6317 38.6136V26H59.4499V38.6136H55.6317ZM51.234 34.2159V30.3977H63.8477V34.2159H51.234Z" fill="black" fill-opacity="0.8"/>
</svg>
