<svg width="75" height="75" viewBox="0 0 75 75" fill="none" xmlns="http://www.w3.org/2000/svg">
<rect x="11" y="11" width="42" height="42" rx="8" fill="#69FF66" fill-opacity="0.8"/>
<rect width="64" height="64" rx="12" fill="#69FF66" fill-opacity="0.2"/>
<path d="M32.2525 30.0909H27.4457C27.4116 29.6932 27.3207 29.3324 27.1729 29.0085C27.0309 28.6847 26.832 28.4062 26.5763 28.1733C26.3263 27.9347 26.0224 27.7528 25.6644 27.6278C25.3065 27.4972 24.9002 27.4318 24.4457 27.4318C23.6502 27.4318 22.9769 27.625 22.4258 28.0114C21.8803 28.3977 21.4656 28.9517 21.1815 29.6733C20.9031 30.3949 20.7638 31.2614 20.7638 32.2727C20.7638 33.3409 20.9059 34.2358 21.19 34.9574C21.4798 35.6733 21.8974 36.2131 22.4428 36.5767C22.9883 36.9347 23.6445 37.1136 24.4116 37.1136C24.8491 37.1136 25.2411 37.0597 25.5877 36.9517C25.9343 36.8381 26.2354 36.6761 26.4911 36.4659C26.7468 36.2557 26.9542 36.0028 27.1133 35.7074C27.2781 35.4062 27.3888 35.0682 27.4457 34.6932L32.2525 34.7273C32.1957 35.4659 31.9883 36.2187 31.6303 36.9858C31.2724 37.7472 30.7638 38.4517 30.1048 39.0994C29.4513 39.7415 28.6417 40.2585 27.6758 40.6506C26.7099 41.0426 25.5877 41.2386 24.3093 41.2386C22.707 41.2386 21.2695 40.8949 19.9968 40.2074C18.7298 39.5199 17.7269 38.5085 16.9883 37.1733C16.2553 35.8381 15.8888 34.2045 15.8888 32.2727C15.8888 30.3295 16.2638 28.6932 17.0138 27.3636C17.7638 26.0284 18.7752 25.0199 20.0479 24.3381C21.3207 23.6506 22.7411 23.3068 24.3093 23.3068C25.4116 23.3068 26.4258 23.4574 27.3519 23.7585C28.2781 24.0597 29.0906 24.5 29.7894 25.0795C30.4883 25.6534 31.0508 26.3608 31.4769 27.2017C31.9031 28.0426 32.1616 29.0057 32.2525 30.0909ZM41.1523 41L44.016 23.5455H47.4251L44.5614 41H41.1523ZM33.4137 37.0114L33.9933 33.6023H48.0387L47.4592 37.0114H33.4137ZM35.016 41L37.8796 23.5455H41.2887L38.4251 41H35.016ZM34.4023 30.9432L34.9819 27.5341H49.0273L48.4478 30.9432H34.4023Z" fill="black" fill-opacity="0.8"/>
</svg>
