<svg width="75" height="75" viewBox="0 0 75 75" fill="none" xmlns="http://www.w3.org/2000/svg">
<rect width="64" height="64" rx="12" fill="#F1E05A" fill-opacity="0.2"/>
<rect x="37" y="37" width="38" height="38" rx="6" fill="#3178C6" fill-opacity="0.2"/>
<rect x="11" y="11" width="42" height="42" rx="8" fill="#F1E05A" fill-opacity="0.9"/>
<rect x="44" y="44" width="24" height="24" rx="6" fill="#3178C6"/>
<path d="M25.2713 23.5455H29.9418V35.5114C29.9361 36.6477 29.6491 37.6477 29.081 38.5114C28.5185 39.3693 27.7401 40.0398 26.7457 40.5227C25.7571 41 24.6179 41.2386 23.3281 41.2386C22.2088 41.2386 21.1861 41.0455 20.2599 40.6591C19.3338 40.267 18.5952 39.6534 18.044 38.8182C17.4929 37.9773 17.2202 36.8864 17.2259 35.5455H21.9645C21.9815 35.983 22.0554 36.3523 22.1861 36.6534C22.3224 36.9545 22.5099 37.1818 22.7486 37.3352C22.9929 37.483 23.2884 37.5568 23.6349 37.5568C23.9872 37.5568 24.2827 37.4801 24.5213 37.3267C24.7656 37.1733 24.9503 36.946 25.0753 36.6449C25.2003 36.3381 25.2656 35.9602 25.2713 35.5114V23.5455ZM41.5966 29C41.5511 28.4318 41.3381 27.9886 40.9574 27.6705C40.5824 27.3523 40.0114 27.1932 39.2443 27.1932C38.7557 27.1932 38.3551 27.2528 38.0426 27.3722C37.7358 27.4858 37.5085 27.642 37.3608 27.8409C37.2131 28.0398 37.1364 28.267 37.1307 28.5227C37.1193 28.733 37.1563 28.9233 37.2415 29.0938C37.3324 29.2585 37.4744 29.4091 37.6676 29.5455C37.8608 29.6761 38.108 29.7955 38.4091 29.9034C38.7102 30.0114 39.0682 30.108 39.483 30.1932L40.9148 30.5C41.8807 30.7045 42.7074 30.9744 43.3949 31.3097C44.0824 31.6449 44.6449 32.0398 45.0824 32.4943C45.5199 32.9432 45.8409 33.4489 46.0455 34.0114C46.2557 34.5739 46.3636 35.1875 46.3693 35.8523C46.3636 37 46.0767 37.9716 45.5085 38.767C44.9403 39.5625 44.1278 40.1676 43.071 40.5824C42.0199 40.9972 40.7557 41.2045 39.2784 41.2045C37.7614 41.2045 36.4375 40.9801 35.3068 40.5312C34.1818 40.0824 33.3068 39.392 32.6818 38.4602C32.0625 37.5227 31.75 36.3239 31.7443 34.8636H36.2443C36.2727 35.3977 36.4063 35.8466 36.6449 36.2102C36.8835 36.5739 37.2188 36.8494 37.6506 37.0369C38.0881 37.2244 38.608 37.3182 39.2102 37.3182C39.7159 37.3182 40.1392 37.2557 40.4801 37.1307C40.821 37.0057 41.0795 36.8324 41.2557 36.6108C41.4318 36.3892 41.5227 36.1364 41.5284 35.8523C41.5227 35.5852 41.4347 35.3523 41.2642 35.1534C41.0994 34.9489 40.8267 34.767 40.446 34.608C40.0653 34.4432 39.5511 34.2898 38.9034 34.1477L37.1648 33.7727C35.6193 33.4375 34.4006 32.8778 33.5085 32.0938C32.6222 31.304 32.1818 30.2273 32.1875 28.8636C32.1818 27.7557 32.4773 26.7869 33.0739 25.9574C33.6761 25.1222 34.5085 24.4716 35.571 24.0057C36.6392 23.5398 37.8636 23.3068 39.2443 23.3068C40.6534 23.3068 41.8722 23.5426 42.9006 24.0142C43.929 24.4858 44.7216 25.1506 45.2784 26.0085C45.8409 26.8608 46.125 27.858 46.1307 29H41.5966Z" fill="black" fill-opacity="0.8"/>
<path d="M46.9101 53.0455V50.8182H55.7595V53.0455H52.697V61H49.9726V53.0455H46.9101ZM62.2884 54C62.2619 53.6686 62.1376 53.41 61.9156 53.2244C61.6968 53.0388 61.3637 52.946 60.9163 52.946C60.6312 52.946 60.3976 52.9808 60.2153 53.0504C60.0363 53.1167 59.9037 53.2079 59.8176 53.3239C59.7314 53.4399 59.6866 53.5724 59.6833 53.7216C59.6767 53.8442 59.6982 53.9553 59.748 54.0547C59.801 54.1508 59.8838 54.2386 59.9965 54.3182C60.1092 54.3944 60.2534 54.464 60.4291 54.527C60.6047 54.59 60.8135 54.6463 61.0555 54.696L61.8907 54.875C62.4542 54.9943 62.9364 55.1518 63.3374 55.3473C63.7385 55.5429 64.0666 55.7732 64.3218 56.0384C64.577 56.3002 64.7643 56.5952 64.8836 56.9233C65.0062 57.2514 65.0692 57.6094 65.0725 57.9972C65.0692 58.6667 64.9018 59.2334 64.5704 59.6974C64.239 60.1615 63.765 60.5144 63.1485 60.7564C62.5354 60.9983 61.7979 61.1193 60.9362 61.1193C60.0512 61.1193 59.279 60.9884 58.6194 60.7266C57.9632 60.4647 57.4527 60.062 57.0882 59.5185C56.7269 58.9716 56.5446 58.2723 56.5413 57.4205H59.1663C59.1829 57.732 59.2607 57.9938 59.3999 58.206C59.5392 58.4181 59.7347 58.5788 59.9866 58.6882C60.2418 58.7976 60.5451 58.8523 60.8964 58.8523C61.1914 58.8523 61.4383 58.8158 61.6372 58.7429C61.836 58.67 61.9868 58.5689 62.0896 58.4396C62.1923 58.3104 62.2454 58.1629 62.2487 57.9972C62.2454 57.8414 62.194 57.7055 62.0945 57.5895C61.9984 57.4702 61.8393 57.3641 61.6173 57.2713C61.3952 57.1752 61.0953 57.0857 60.7174 57.0028L59.7032 56.7841C58.8017 56.5885 58.0908 56.2621 57.5704 55.8047C57.0534 55.344 56.7965 54.7159 56.7998 53.9205C56.7965 53.2741 56.9688 52.709 57.3169 52.2251C57.6682 51.7379 58.1537 51.3584 58.7735 51.0866C59.3966 50.8149 60.1109 50.679 60.9163 50.679C61.7383 50.679 62.4492 50.8165 63.0491 51.0916C63.649 51.3667 64.1114 51.7545 64.4362 52.255C64.7643 52.7521 64.93 53.3338 64.9333 54H62.2884Z" fill="black" fill-opacity="0.8"/>
</svg>
