<svg width="75" height="75" viewBox="0 0 75 75" fill="none" xmlns="http://www.w3.org/2000/svg">
<rect width="64" height="64" rx="12" fill="#DEA584" fill-opacity="0.2"/>
<rect x="11" y="11" width="42" height="42" rx="8" fill="#DEA584" fill-opacity="0.9"/>
<path d="M17.1172 41V23.5455H24.6513C25.9467 23.5455 27.0803 23.7812 28.0518 24.2528C29.0234 24.7244 29.7791 25.4034 30.3189 26.2898C30.8587 27.1761 31.1286 28.2386 31.1286 29.4773C31.1286 30.7273 30.8501 31.7812 30.2933 32.6392C29.7422 33.4972 28.9666 34.1449 27.9666 34.5824C26.9723 35.0199 25.8104 35.2386 24.4808 35.2386H19.9808V31.5568H23.5263C24.0831 31.5568 24.5575 31.4886 24.9496 31.3523C25.3473 31.2102 25.6513 30.9858 25.8615 30.679C26.0774 30.3722 26.1854 29.9716 26.1854 29.4773C26.1854 28.9773 26.0774 28.571 25.8615 28.2585C25.6513 27.9403 25.3473 27.7074 24.9496 27.5597C24.5575 27.4062 24.0831 27.3295 23.5263 27.3295H21.8558V41H17.1172ZM27.3445 32.9886L31.7081 41H26.5604L22.299 32.9886H27.3445ZM42.5575 29C42.5121 28.4318 42.299 27.9886 41.9183 27.6705C41.5433 27.3523 40.9723 27.1932 40.2053 27.1932C39.7166 27.1932 39.3161 27.2528 39.0036 27.3722C38.6967 27.4858 38.4695 27.642 38.3217 27.8409C38.174 28.0398 38.0973 28.267 38.0916 28.5227C38.0803 28.733 38.1172 28.9233 38.2024 29.0938C38.2933 29.2585 38.4354 29.4091 38.6286 29.5455C38.8217 29.6761 39.0689 29.7955 39.37 29.9034C39.6712 30.0114 40.0291 30.108 40.4439 30.1932L41.8757 30.5C42.8416 30.7045 43.6683 30.9744 44.3558 31.3097C45.0433 31.6449 45.6058 32.0398 46.0433 32.4943C46.4808 32.9432 46.8018 33.4489 47.0064 34.0114C47.2166 34.5739 47.3246 35.1875 47.3303 35.8523C47.3246 37 47.0376 37.9716 46.4695 38.767C45.9013 39.5625 45.0888 40.1676 44.032 40.5824C42.9808 40.9972 41.7166 41.2045 40.2393 41.2045C38.7223 41.2045 37.3984 40.9801 36.2678 40.5312C35.1428 40.0824 34.2678 39.392 33.6428 38.4602C33.0234 37.5227 32.7109 36.3239 32.7053 34.8636H37.2053C37.2337 35.3977 37.3672 35.8466 37.6058 36.2102C37.8445 36.5739 38.1797 36.8494 38.6115 37.0369C39.049 37.2244 39.5689 37.3182 40.1712 37.3182C40.6768 37.3182 41.1001 37.2557 41.4411 37.1307C41.782 37.0057 42.0405 36.8324 42.2166 36.6108C42.3928 36.3892 42.4837 36.1364 42.4893 35.8523C42.4837 35.5852 42.3956 35.3523 42.2251 35.1534C42.0604 34.9489 41.7876 34.767 41.407 34.608C41.0263 34.4432 40.5121 34.2898 39.8643 34.1477L38.1257 33.7727C36.5803 33.4375 35.3615 32.8778 34.4695 32.0938C33.5831 31.304 33.1428 30.2273 33.1484 28.8636C33.1428 27.7557 33.4382 26.7869 34.0348 25.9574C34.6371 25.1222 35.4695 24.4716 36.532 24.0057C37.6001 23.5398 38.8246 23.3068 40.2053 23.3068C41.6143 23.3068 42.8331 23.5426 43.8615 24.0142C44.8899 24.4858 45.6825 25.1506 46.2393 26.0085C46.8018 26.8608 47.0859 27.858 47.0916 29H42.5575Z" fill="black" fill-opacity="0.8"/>
</svg>
