<svg width="113" height="75" viewBox="0 0 113 75" fill="none" xmlns="http://www.w3.org/2000/svg">
<rect width="105" height="64" rx="12" fill="#EE5422" fill-opacity="0.2"/>
<rect x="11" y="11" width="83" height="42" rx="8" fill="#EA6439" fill-opacity="0.9"/>
<path d="M25.0302 29C24.9847 28.4318 24.7717 27.9886 24.391 27.6705C24.016 27.3523 23.445 27.1932 22.6779 27.1932C22.1893 27.1932 21.7887 27.2528 21.4762 27.3722C21.1694 27.4858 20.9421 27.642 20.7944 27.8409C20.6467 28.0398 20.57 28.267 20.5643 28.5227C20.5529 28.733 20.5898 28.9233 20.6751 29.0938C20.766 29.2585 20.908 29.4091 21.1012 29.5455C21.2944 29.6761 21.5415 29.7955 21.8427 29.9034C22.1438 30.0114 22.5018 30.108 22.9165 30.1932L24.3484 30.5C25.3143 30.7045 26.141 30.9744 26.8285 31.3097C27.516 31.6449 28.0785 32.0398 28.516 32.4943C28.9535 32.9432 29.2745 33.4489 29.479 34.0114C29.6893 34.5739 29.7972 35.1875 29.8029 35.8523C29.7972 37 29.5103 37.9716 28.9421 38.767C28.3739 39.5625 27.5614 40.1676 26.5046 40.5824C25.4535 40.9972 24.1893 41.2045 22.712 41.2045C21.195 41.2045 19.8711 40.9801 18.7404 40.5312C17.6154 40.0824 16.7404 39.392 16.1154 38.4602C15.4961 37.5227 15.1836 36.3239 15.1779 34.8636H19.6779C19.7063 35.3977 19.8398 35.8466 20.0785 36.2102C20.3171 36.5739 20.6523 36.8494 21.0842 37.0369C21.5217 37.2244 22.0415 37.3182 22.6438 37.3182C23.1495 37.3182 23.5728 37.2557 23.9137 37.1307C24.2546 37.0057 24.5131 36.8324 24.6893 36.6108C24.8654 36.3892 24.9563 36.1364 24.962 35.8523C24.9563 35.5852 24.8683 35.3523 24.6978 35.1534C24.533 34.9489 24.2603 34.767 23.8796 34.608C23.4989 34.4432 22.9847 34.2898 22.337 34.1477L20.5984 33.7727C19.0529 33.4375 17.8342 32.8778 16.9421 32.0938C16.0558 31.304 15.6154 30.2273 15.6211 28.8636C15.6154 27.7557 15.9109 26.7869 16.5075 25.9574C17.1097 25.1222 17.9421 24.4716 19.0046 24.0057C20.0728 23.5398 21.2972 23.3068 22.6779 23.3068C24.087 23.3068 25.3058 23.5426 26.3342 24.0142C27.3626 24.4858 28.1552 25.1506 28.712 26.0085C29.2745 26.8608 29.5586 27.858 29.5643 29H25.0302ZM44.8668 27.9091L40.4691 41H35.0146L30.6168 27.9091H35.56L37.6737 36.5682H37.81L39.9237 27.9091H44.8668ZM52.0792 41.2386C50.6815 41.2386 49.4769 40.9716 48.4656 40.4375C47.4599 39.8977 46.6843 39.125 46.1388 38.1193C45.5991 37.108 45.3292 35.8977 45.3292 34.4886C45.3292 33.1364 45.6019 31.9545 46.1474 30.9432C46.6928 29.9318 47.4627 29.1449 48.457 28.5824C49.4513 28.0199 50.6246 27.7386 51.9769 27.7386C52.9656 27.7386 53.8604 27.892 54.6616 28.1989C55.4627 28.5057 56.1474 28.9517 56.7156 29.5369C57.2837 30.1165 57.7212 30.821 58.0281 31.6506C58.3349 32.4801 58.4883 33.4148 58.4883 34.4545V35.5455H46.7951V32.9545H54.1587C54.1531 32.5795 54.0565 32.25 53.869 31.9659C53.6871 31.6761 53.44 31.4517 53.1275 31.2926C52.8207 31.1278 52.4712 31.0455 52.0792 31.0455C51.6985 31.0455 51.3491 31.1278 51.0309 31.2926C50.7127 31.4517 50.457 31.6733 50.2638 31.9574C50.0763 32.2415 49.9769 32.5739 49.9656 32.9545V35.75C49.9656 36.1705 50.0536 36.5455 50.2298 36.875C50.4059 37.2045 50.6587 37.4631 50.9883 37.6506C51.3178 37.8381 51.7156 37.9318 52.1815 37.9318C52.5053 37.9318 52.8008 37.8864 53.0678 37.7955C53.3406 37.7045 53.5735 37.5739 53.7667 37.4034C53.9599 37.2273 54.1019 37.017 54.1928 36.7727H58.4883C58.3406 37.6818 57.9911 38.4716 57.44 39.142C56.8888 39.8068 56.1587 40.3239 55.2496 40.6932C54.3462 41.0568 53.2894 41.2386 52.0792 41.2386ZM65.1126 23.5455V41H60.408V23.5455H65.1126ZM75.3164 27.9091V31.3182H66.6914V27.9091H75.3164ZM68.3619 24.7727H73.0664V36.7898C73.0664 36.9716 73.0977 37.125 73.1602 37.25C73.2227 37.3693 73.3192 37.4602 73.4499 37.5227C73.5806 37.5795 73.7482 37.608 73.9528 37.608C74.0948 37.608 74.2596 37.5909 74.4471 37.5568C74.6403 37.5227 74.7823 37.4943 74.8732 37.4716L75.555 40.7784C75.3448 40.8409 75.0437 40.9176 74.6516 41.0085C74.2653 41.0994 73.805 41.1591 73.271 41.1875C72.1914 41.2443 71.2852 41.1335 70.5522 40.8551C69.8192 40.571 69.2681 40.125 68.8988 39.517C68.5295 38.9091 68.3505 38.1477 68.3619 37.233V24.7727ZM83.3683 41.2386C81.9705 41.2386 80.766 40.9716 79.7546 40.4375C78.7489 39.8977 77.9734 39.125 77.4279 38.1193C76.8881 37.108 76.6183 35.8977 76.6183 34.4886C76.6183 33.1364 76.891 31.9545 77.4364 30.9432C77.9819 29.9318 78.7518 29.1449 79.7461 28.5824C80.7404 28.0199 81.9137 27.7386 83.266 27.7386C84.2546 27.7386 85.1495 27.892 85.9506 28.1989C86.7518 28.5057 87.4364 28.9517 88.0046 29.5369C88.5728 30.1165 89.0103 30.821 89.3171 31.6506C89.6239 32.4801 89.7773 33.4148 89.7773 34.4545V35.5455H78.0842V32.9545H85.4478C85.4421 32.5795 85.3455 32.25 85.158 31.9659C84.9762 31.6761 84.729 31.4517 84.4165 31.2926C84.1097 31.1278 83.7603 31.0455 83.3683 31.0455C82.9876 31.0455 82.6381 31.1278 82.32 31.2926C82.0018 31.4517 81.7461 31.6733 81.5529 31.9574C81.3654 32.2415 81.266 32.5739 81.2546 32.9545V35.75C81.2546 36.1705 81.3427 36.5455 81.5188 36.875C81.695 37.2045 81.9478 37.4631 82.2773 37.6506C82.6069 37.8381 83.0046 37.9318 83.4705 37.9318C83.7944 37.9318 84.0898 37.8864 84.3569 37.7955C84.6296 37.7045 84.8626 37.5739 85.0558 37.4034C85.2489 37.2273 85.391 37.017 85.4819 36.7727H89.7773C89.6296 37.6818 89.2802 38.4716 88.729 39.142C88.1779 39.8068 87.4478 40.3239 86.5387 40.6932C85.6353 41.0568 84.5785 41.2386 83.3683 41.2386Z" fill="black" fill-opacity="0.8"/>
</svg>
