<svg width="151" height="75" viewBox="0 0 151 75" fill="none" xmlns="http://www.w3.org/2000/svg">
<rect width="140" height="64" rx="12" fill="#4FC1E5" fill-opacity="0.2"/>
<rect x="11" y="11" width="118" height="42" rx="8" fill="#4FC1E5" fill-opacity="0.9"/>
<path d="M21.6751 23.5455L25.2546 35.8523H25.391L28.9705 23.5455H34.3228L28.5614 41H22.0842L16.3228 23.5455H21.6751ZM36.0039 41V23.5455H43.5721C44.9016 23.5455 46.0181 23.7244 46.9215 24.0824C47.8306 24.4403 48.5153 24.946 48.9755 25.5994C49.4414 26.2528 49.6744 27.0227 49.6744 27.9091C49.6744 28.5511 49.5323 29.1364 49.2482 29.6648C48.9698 30.1932 48.5778 30.6364 48.0721 30.9943C47.5664 31.3466 46.9755 31.5909 46.2994 31.7273V31.8977C47.0494 31.9261 47.7312 32.1165 48.3448 32.4688C48.9585 32.8153 49.4471 33.2955 49.8107 33.9091C50.1744 34.517 50.3562 35.233 50.3562 36.0568C50.3562 37.0114 50.1062 37.8608 49.6062 38.6051C49.1119 39.3494 48.4073 39.9347 47.4925 40.3608C46.5778 40.7869 45.4869 41 44.2198 41H36.0039ZM40.7425 37.2159H42.9585C43.7539 37.2159 44.3505 37.0682 44.7482 36.7727C45.146 36.4716 45.3448 36.0284 45.3448 35.4432C45.3448 35.0341 45.2511 34.6875 45.0636 34.4034C44.8761 34.1193 44.609 33.9034 44.2624 33.7557C43.9215 33.608 43.5096 33.5341 43.0266 33.5341H40.7425V37.2159ZM40.7425 30.6023H42.6857C43.1005 30.6023 43.467 30.5369 43.7852 30.4062C44.1033 30.2756 44.3505 30.0881 44.5266 29.8438C44.7085 29.5938 44.7994 29.2898 44.7994 28.9318C44.7994 28.392 44.6062 27.9801 44.2198 27.696C43.8335 27.4062 43.3448 27.2614 42.7539 27.2614H40.7425V30.6023ZM61.4442 29C61.3988 28.4318 61.1857 27.9886 60.805 27.6705C60.43 27.3523 59.859 27.1932 59.092 27.1932C58.6033 27.1932 58.2028 27.2528 57.8903 27.3722C57.5835 27.4858 57.3562 27.642 57.2085 27.8409C57.0607 28.0398 56.984 28.267 56.9783 28.5227C56.967 28.733 57.0039 28.9233 57.0891 29.0938C57.18 29.2585 57.3221 29.4091 57.5153 29.5455C57.7085 29.6761 57.9556 29.7955 58.2567 29.9034C58.5579 30.0114 58.9158 30.108 59.3306 30.1932L60.7624 30.5C61.7283 30.7045 62.555 30.9744 63.2425 31.3097C63.93 31.6449 64.4925 32.0398 64.93 32.4943C65.3675 32.9432 65.6886 33.4489 65.8931 34.0114C66.1033 34.5739 66.2113 35.1875 66.217 35.8523C66.2113 37 65.9244 37.9716 65.3562 38.767C64.788 39.5625 63.9755 40.1676 62.9187 40.5824C61.8675 40.9972 60.6033 41.2045 59.1261 41.2045C57.609 41.2045 56.2852 40.9801 55.1545 40.5312C54.0295 40.0824 53.1545 39.392 52.5295 38.4602C51.9102 37.5227 51.5977 36.3239 51.592 34.8636H56.092C56.1204 35.3977 56.2539 35.8466 56.4925 36.2102C56.7312 36.5739 57.0664 36.8494 57.4982 37.0369C57.9357 37.2244 58.4556 37.3182 59.0579 37.3182C59.5636 37.3182 59.9869 37.2557 60.3278 37.1307C60.6687 37.0057 60.9272 36.8324 61.1033 36.6108C61.2795 36.3892 61.3704 36.1364 61.3761 35.8523C61.3704 35.5852 61.2823 35.3523 61.1119 35.1534C60.9471 34.9489 60.6744 34.767 60.2937 34.608C59.913 34.4432 59.3988 34.2898 58.7511 34.1477L57.0124 33.7727C55.467 33.4375 54.2482 32.8778 53.3562 32.0938C52.4698 31.304 52.0295 30.2273 52.0352 28.8636C52.0295 27.7557 52.3249 26.7869 52.9215 25.9574C53.5238 25.1222 54.3562 24.4716 55.4187 24.0057C56.4869 23.5398 57.7113 23.3068 59.092 23.3068C60.5011 23.3068 61.7198 23.5426 62.7482 24.0142C63.7766 24.4858 64.5692 25.1506 65.1261 26.0085C65.6886 26.8608 65.9727 27.858 65.9783 29H61.4442ZM74.3945 41.2386C72.9741 41.2386 71.7582 40.9574 70.7468 40.3949C69.7354 39.8267 68.9599 39.0369 68.4201 38.0256C67.8803 37.0085 67.6104 35.8295 67.6104 34.4886C67.6104 33.1477 67.8803 31.9716 68.4201 30.9602C68.9599 29.9432 69.7354 29.1534 70.7468 28.5909C71.7582 28.0227 72.9741 27.7386 74.3945 27.7386C75.6786 27.7386 76.7894 27.9716 77.7269 28.4375C78.6701 28.8977 79.4002 29.5511 79.9173 30.3977C80.4343 31.2386 80.6957 32.2273 80.7014 33.3636H76.3377C76.2752 32.6761 76.0763 32.1534 75.7411 31.7955C75.4116 31.4318 74.9854 31.25 74.4627 31.25C74.0536 31.25 73.6957 31.3693 73.3888 31.608C73.082 31.8409 72.8434 32.196 72.6729 32.6733C72.5025 33.1449 72.4173 33.7386 72.4173 34.4545C72.4173 35.1705 72.5025 35.767 72.6729 36.2443C72.8434 36.7159 73.082 37.071 73.3888 37.3097C73.6957 37.5426 74.0536 37.6591 74.4627 37.6591C74.8093 37.6591 75.1161 37.5795 75.3832 37.4205C75.6502 37.2557 75.8661 37.017 76.0309 36.7045C76.2013 36.3864 76.3036 36 76.3377 35.5455H80.7014C80.6843 36.6989 80.4201 37.7045 79.9087 38.5625C79.3974 39.4148 78.6729 40.0739 77.7354 40.5398C76.8036 41.0057 75.69 41.2386 74.3945 41.2386ZM82.6424 41V27.9091H87.2106V30.3977H87.3469C87.5856 29.4773 87.9634 28.804 88.4805 28.3778C89.0032 27.9517 89.614 27.7386 90.3129 27.7386C90.5174 27.7386 90.7191 27.7557 90.918 27.7898C91.1225 27.8182 91.3185 27.8608 91.506 27.9176V31.9318C91.2731 31.8523 90.9862 31.7926 90.6452 31.7528C90.3043 31.7131 90.0117 31.6932 89.7674 31.6932C89.3072 31.6932 88.8924 31.7983 88.5231 32.0085C88.1594 32.2131 87.8725 32.5028 87.6623 32.8778C87.4521 33.2472 87.3469 33.6818 87.3469 34.1818V41H82.6424ZM93.0487 41V27.9091H97.7532V41H93.0487ZM95.4009 26.5455C94.7646 26.5455 94.2191 26.3352 93.7646 25.9148C93.31 25.4943 93.0827 24.9886 93.0827 24.3977C93.0827 23.8068 93.31 23.3011 93.7646 22.8807C94.2191 22.4602 94.7646 22.25 95.4009 22.25C96.043 22.25 96.5884 22.4602 97.0373 22.8807C97.4918 23.3011 97.7191 23.8068 97.7191 24.3977C97.7191 24.9886 97.4918 25.4943 97.0373 25.9148C96.5884 26.3352 96.043 26.5455 95.4009 26.5455ZM100.15 45.9091V27.9091H104.821V30.1932H104.923C105.093 29.75 105.343 29.3437 105.673 28.9744C106.002 28.5994 106.412 28.3011 106.9 28.0795C107.389 27.8523 107.957 27.7386 108.605 27.7386C109.468 27.7386 110.289 27.9688 111.068 28.429C111.852 28.8892 112.488 29.6136 112.977 30.6023C113.471 31.5909 113.718 32.875 113.718 34.4545C113.718 35.9659 113.483 37.2187 113.011 38.2131C112.545 39.2074 111.92 39.9489 111.136 40.4375C110.358 40.9261 109.502 41.1705 108.571 41.1705C107.957 41.1705 107.409 41.071 106.926 40.8722C106.449 40.6676 106.039 40.392 105.699 40.0455C105.363 39.6932 105.105 39.2955 104.923 38.8523H104.855V45.9091H100.15ZM104.752 34.4545C104.752 35.0909 104.835 35.642 105 36.108C105.17 36.5682 105.409 36.9261 105.716 37.1818C106.028 37.4318 106.4 37.5568 106.832 37.5568C107.264 37.5568 107.63 37.4347 107.931 37.1903C108.238 36.9403 108.471 36.5852 108.63 36.125C108.795 35.6591 108.877 35.1023 108.877 34.4545C108.877 33.8068 108.795 33.2528 108.63 32.7926C108.471 32.3267 108.238 31.9716 107.931 31.7273C107.63 31.4773 107.264 31.3523 106.832 31.3523C106.4 31.3523 106.028 31.4773 105.716 31.7273C105.409 31.9716 105.17 32.3267 105 32.7926C104.835 33.2528 104.752 33.8068 104.752 34.4545ZM123.496 27.9091V31.3182H114.871V27.9091H123.496ZM116.542 24.7727H121.246V36.7898C121.246 36.9716 121.277 37.125 121.34 37.25C121.402 37.3693 121.499 37.4602 121.63 37.5227C121.76 37.5795 121.928 37.608 122.132 37.608C122.275 37.608 122.439 37.5909 122.627 37.5568C122.82 37.5227 122.962 37.4943 123.053 37.4716L123.735 40.7784C123.525 40.8409 123.223 40.9176 122.831 41.0085C122.445 41.0994 121.985 41.1591 121.451 41.1875C120.371 41.2443 119.465 41.1335 118.732 40.8551C117.999 40.571 117.448 40.125 117.078 39.517C116.709 38.9091 116.53 38.1477 116.542 37.233V24.7727Z" fill="black" fill-opacity="0.8"/>
</svg>
