<svg width="89" height="75" viewBox="0 0 89 75" fill="none" xmlns="http://www.w3.org/2000/svg">
<rect width="81" height="64" rx="12" fill="#69FF66" fill-opacity="0.2"/>
<rect x="11" y="11" width="59" height="42" rx="8" fill="#69FF66" fill-opacity="0.8"/>
<path d="M21.7532 23.5455L25.3327 35.8523H25.4691L29.0487 23.5455H34.4009L28.6396 41H22.1623L16.4009 23.5455H21.7532ZM44.6388 35.2727V27.9091H49.3434V41H44.8775V38.5114H44.7411C44.457 39.3466 43.9599 40 43.2496 40.4716C42.5394 40.9375 41.6957 41.1705 40.7184 41.1705C39.8036 41.1705 39.0025 40.9602 38.315 40.5398C37.6332 40.1193 37.1019 39.5398 36.7212 38.8011C36.3462 38.0625 36.1559 37.2159 36.1502 36.2614V27.9091H40.8548V35.2727C40.8604 35.9205 41.0252 36.429 41.3491 36.7983C41.6786 37.1676 42.1388 37.3523 42.7298 37.3523C43.1218 37.3523 43.4599 37.2699 43.744 37.1051C44.0337 36.9347 44.2553 36.696 44.4087 36.3892C44.5678 36.0767 44.6445 35.7045 44.6388 35.2727ZM58.0089 41.2386C56.6112 41.2386 55.4066 40.9716 54.3952 40.4375C53.3896 39.8977 52.614 39.125 52.0685 38.1193C51.5288 37.108 51.2589 35.8977 51.2589 34.4886C51.2589 33.1364 51.5316 31.9545 52.0771 30.9432C52.6225 29.9318 53.3924 29.1449 54.3867 28.5824C55.381 28.0199 56.5543 27.7386 57.9066 27.7386C58.8952 27.7386 59.7901 27.892 60.5913 28.1989C61.3924 28.5057 62.0771 28.9517 62.6452 29.5369C63.2134 30.1165 63.6509 30.821 63.9577 31.6506C64.2646 32.4801 64.418 33.4148 64.418 34.4545V35.5455H52.7248V32.9545H60.0884C60.0827 32.5795 59.9862 32.25 59.7987 31.9659C59.6168 31.6761 59.3697 31.4517 59.0572 31.2926C58.7504 31.1278 58.4009 31.0455 58.0089 31.0455C57.6282 31.0455 57.2788 31.1278 56.9606 31.2926C56.6424 31.4517 56.3867 31.6733 56.1935 31.9574C56.006 32.2415 55.9066 32.5739 55.8952 32.9545V35.75C55.8952 36.1705 55.9833 36.5455 56.1594 36.875C56.3356 37.2045 56.5884 37.4631 56.918 37.6506C57.2475 37.8381 57.6452 37.9318 58.1112 37.9318C58.435 37.9318 58.7305 37.8864 58.9975 37.7955C59.2702 37.7045 59.5032 37.5739 59.6964 37.4034C59.8896 37.2273 60.0316 37.017 60.1225 36.7727H64.418C64.2702 37.6818 63.9208 38.4716 63.3697 39.142C62.8185 39.8068 62.0884 40.3239 61.1793 40.6932C60.2759 41.0568 59.2191 41.2386 58.0089 41.2386Z" fill="black" fill-opacity="0.8"/>
</svg>
